<svg width="34" height="34" viewBox="0 0 34 34" fill="none" xmlns="http://www.w3.org/2000/svg">
<path d="M21.16 17.928V22.296C21.16 25.944 19.704 27.4 16.056 27.4H11.704C8.07197 27.4 6.59998 25.944 6.59998 22.296V17.928C6.59998 14.296 8.05597 12.84 11.704 12.84H16.072C19.704 12.84 21.16 14.296 21.16 17.928Z" stroke="#6B7280" stroke-width="1.5" stroke-linecap="round" stroke-linejoin="round"/>
<path d="M27.4 11.688V16.056C27.4 19.704 25.944 21.16 22.296 21.16H21.16V17.928C21.16 14.296 19.704 12.84 16.056 12.84H12.84V11.688C12.84 8.04001 14.296 6.60001 17.944 6.60001H22.312C25.944 6.60001 27.4 8.05601 27.4 11.688Z" stroke="#6B7280" stroke-width="1.5" stroke-linecap="round" stroke-linejoin="round"/>
<path d="M33 21.8C33 27.992 27.992 33 21.8 33L23.48 30.2" stroke="#6B7280" stroke-width="1.5" stroke-linecap="round" stroke-linejoin="round"/>
<path d="M1 12.2C1 6.008 6.008 1 12.2 1L10.52 3.8" stroke="#6B7280" stroke-width="1.5" stroke-linecap="round" stroke-linejoin="round"/>
</svg>
